<?xml version="1.0" encoding="utf-8"?>
<svg version="1.1" id="Calque_1" x="0px" y="0px"
	 viewBox="0 0 10 10" style="enable-background:new 0 0 10 10;" xml:space="preserve">
<style type="text/css">
	.st0{fill:#242748;}
</style>
<path class="st0" d="M7.1,4.1c0.4-0.4,0.7-0.9,0.7-1.4C7.7,1.6,6.8,1,5.5,1h-3v7.9H5c2,0,3.4-1.1,3.4-2.6C8.4,5.3,8,4.6,7.1,4.1
	L7.1,4.1z M3.6,1.9h2c0.7,0,1.1,0.4,1.1,0.9c0,0.6-0.5,1.1-1.7,1.5C4.2,4.5,3.8,4.6,3.6,4.9l0,0C3.6,4.7,3.6,1.9,3.6,1.9z M5,7.6
	H3.6V6.4c0-0.5,0.5-1.1,1.2-1.4c0.5-0.1,1.1-0.3,1.5-0.4C6.8,4.9,7.2,5.4,7.2,6C7.2,7.1,6.2,7.6,5,7.6L5,7.6z"/>
</svg>
