<svg width="772" height="250" viewBox="0 0 772 250" fill="none" xmlns="http://www.w3.org/2000/svg">
<g clip-path="url(#clip0_1863_31421)">
<rect width="772" height="250" fill="white"/>
<g opacity="0.6">
<path d="M854.622 196.736L789.461 103.839C783.813 95.787 774.324 91.3605 764.534 92.2097L651.74 102.037C641.974 102.89 633.402 108.902 629.275 117.795L581.632 220.504C577.505 229.396 578.432 239.849 584.08 247.901L649.241 340.798C654.889 348.85 664.378 353.276 674.168 352.427L786.962 342.6C796.728 341.747 805.3 335.735 809.427 326.842L857.07 224.133C861.197 215.241 860.27 204.788 854.622 196.736Z" fill="url(#paint0_linear_1863_31421)" style="mix-blend-mode:overlay"/>
</g>
<g opacity="0.6">
<path d="M33.2533 270.672L51.2561 228.658C52.8167 225.016 52.3209 220.827 49.9546 217.654L22.6741 181.104C20.3113 177.94 16.4346 176.279 12.5138 176.751L-32.7668 182.209C-36.6875 182.68 -40.0711 185.214 -41.6316 188.856L-59.6344 230.87C-61.195 234.512 -60.6992 238.7 -58.3329 241.873L-31.0524 278.423C-28.6896 281.588 -24.8129 283.249 -20.8921 282.777L24.3885 277.319C28.3092 276.847 31.6928 274.314 33.2533 270.672Z" fill="url(#paint1_linear_1863_31421)" style="mix-blend-mode:overlay"/>
</g>
<rect width="806" height="262" transform="translate(-34 -3)" fill="url(#paint2_linear_1863_31421)" fill-opacity="0.5"/>
<rect x="0.523001" y="0.47384" width="334.663" height="46.1596" rx="11.5" transform="matrix(0.998688 -0.0511999 0.0473144 0.99888 206.108 80.7607)" fill="white"/>
<path d="M268.207 111.535C266.23 111.636 264.481 111.275 262.96 110.452C261.439 109.629 260.232 108.439 259.337 106.883C258.441 105.306 257.943 103.45 257.842 101.312C257.74 99.1543 258.069 97.235 258.83 95.5538C259.611 93.8516 260.758 92.5011 262.273 91.5023C263.806 90.4824 265.651 89.9172 267.808 89.8066C270.265 89.6807 272.33 90.1655 274.004 91.2613C275.678 92.357 276.804 93.9314 277.381 95.9845L273.097 96.2042C272.731 95.2417 272.116 94.5122 271.251 94.0158C270.386 93.4995 269.294 93.2751 267.976 93.3426C265.879 93.4502 264.293 94.2024 263.217 95.5992C262.141 96.9761 261.658 98.8233 261.768 101.141C261.878 103.458 262.522 105.227 263.701 106.449C264.899 107.649 266.467 108.199 268.405 108.1C270.302 108.003 271.706 107.42 272.617 106.352C273.546 105.263 274.071 103.874 274.191 102.186L268.888 102.458L268.752 99.581L277.92 99.111L278.466 110.648L274.931 110.829L274.501 108.088C273.869 109.121 273.057 109.934 272.063 110.526C271.07 111.117 269.785 111.454 268.207 111.535ZM282.195 110.457L281.201 89.4805L288.901 89.0857C290.579 88.9997 291.971 89.2187 293.077 89.7428C294.202 90.2458 295.057 90.973 295.643 91.9242C296.227 92.8555 296.548 93.9105 296.604 95.0892C296.664 96.3677 296.38 97.5538 295.751 98.6475C295.142 99.7401 294.14 100.562 292.744 101.115L297.505 109.672L293.1 109.898L288.814 101.827L285.638 101.99L286.03 110.26L282.195 110.457ZM285.504 99.1728L289.13 98.9869C290.408 98.9214 291.332 98.5636 291.902 97.9136C292.472 97.2636 292.733 96.4291 292.684 95.4103C292.637 94.4114 292.3 93.6276 291.672 93.059C291.064 92.4894 290.101 92.2384 288.783 92.306L285.188 92.4903L285.504 99.1728ZM299.513 109.569L306.19 88.1994L310.504 87.9782L319.167 108.561L315.093 108.77L313.185 104.002L305.006 104.421L303.528 109.363L299.513 109.569ZM305.913 101.371L311.995 101.059L308.525 92.4954L305.913 101.371ZM325.289 108.248L316.625 87.6644L320.73 87.454L327.47 104.201L332.624 86.8442L336.669 86.6368L329.992 108.007L325.289 108.248ZM340.156 107.485L339.162 86.509L342.997 86.3124L343.991 107.289L340.156 107.485ZM352.939 106.83L352.092 88.9402L345.98 89.2535L345.833 86.167L361.922 85.3421L362.068 88.4287L355.927 88.7436L356.774 106.633L352.939 106.83ZM371.18 105.895L370.826 98.4333L363.145 85.2794L367.49 85.0567L372.592 94.4978L376.747 84.5821L381.032 84.3624L374.661 98.2367L375.015 105.698L371.18 105.895ZM391.621 104.847L390.628 83.8705L404.17 83.1762L404.316 86.2628L394.609 86.7604L394.887 92.6338L402.737 92.2314L402.88 95.258L395.03 95.6604L395.456 104.65L391.621 104.847ZM417.967 103.857C415.87 103.964 414.011 103.599 412.389 102.761C410.788 101.922 409.499 100.716 408.524 99.1441C407.567 97.551 407.038 95.6857 406.937 93.5481C406.836 91.4105 407.186 89.51 407.989 87.8468C408.81 86.1626 409.978 84.821 411.492 83.8222C413.026 82.8223 414.842 82.2686 416.939 82.1611C419.017 82.0546 420.866 82.4204 422.488 83.2585C424.109 84.0965 425.398 85.3121 426.354 86.9052C427.31 88.4784 427.838 90.3337 427.94 92.4713C428.041 94.6089 427.691 96.5193 426.89 98.2026C426.087 99.8658 424.919 101.197 423.385 102.197C421.85 103.197 420.044 103.75 417.967 103.857ZM417.804 100.411C419.801 100.308 421.358 99.5676 422.474 98.1886C423.61 96.8087 424.123 94.97 424.015 92.6725C423.906 90.3751 423.221 88.5979 421.96 87.3408C420.719 86.0827 419.1 85.5048 417.103 85.6072C415.105 85.7096 413.539 86.4508 412.403 87.8308C411.267 89.2107 410.753 91.0494 410.862 93.3468C410.971 95.6443 411.656 97.4215 412.917 98.6786C414.177 99.9357 415.807 100.513 417.804 100.411ZM431.822 102.786L430.829 81.8095L438.529 81.4147C440.206 81.3287 441.598 81.5477 442.704 82.0718C443.829 82.5749 444.685 83.302 445.27 84.2533C445.855 85.1845 446.175 86.2395 446.231 87.4182C446.292 88.6968 446.008 89.8829 445.379 90.9765C444.77 92.0691 443.767 92.8915 442.372 93.4436L447.132 102.001L442.728 102.227L438.441 94.1558L435.266 94.3186L435.657 102.589L431.822 102.786ZM435.132 91.5018L438.757 91.3159C440.036 91.2504 440.96 90.8926 441.53 90.2426C442.1 89.5926 442.36 88.7581 442.312 87.7393C442.265 86.7404 441.927 85.9567 441.3 85.388C440.692 84.8184 439.729 84.5674 438.411 84.635L434.816 84.8193L435.132 91.5018ZM450.489 101.829L449.496 80.8525L454.05 80.619L461.361 93.5816L467.322 79.9386L471.876 79.7051L472.87 100.682L469.035 100.878L468.349 86.4044L463.051 98.1811L460.025 98.3362L453.639 87.1586L454.324 101.632L450.489 101.829ZM484.116 100.465C482.579 100.544 481.208 100.354 480.005 99.8952C478.801 99.4163 477.836 98.7047 477.111 97.7606C476.384 96.7966 475.978 95.6059 475.89 94.1885L479.935 93.9811C480.021 94.958 480.41 95.7691 481.101 96.4146C481.812 97.039 482.756 97.321 483.935 97.2606C484.953 97.2084 485.751 96.9272 486.327 96.417C486.903 95.8868 487.171 95.2122 487.133 94.3931C487.092 93.5341 486.791 92.8787 486.229 92.4269C485.686 91.974 484.969 91.6203 484.076 91.3657C483.183 91.1111 482.229 90.8396 481.214 90.5511C479.57 90.0747 478.297 89.419 477.397 88.584C476.516 87.748 476.042 86.6008 475.972 85.1425C475.894 83.9049 476.133 82.8312 476.691 81.9215C477.267 80.9908 478.074 80.2585 479.11 79.7248C480.145 79.1711 481.351 78.8589 482.729 78.7882C484.127 78.7166 485.368 78.9033 486.45 79.3485C487.552 79.7926 488.424 80.4488 489.066 81.3171C489.728 82.1843 490.108 83.2362 490.207 84.4728L486.102 84.6832C486.047 83.9451 485.727 83.3107 485.141 82.78C484.574 82.2283 483.801 81.9775 482.823 82.0277C481.983 82.0507 481.284 82.2968 480.725 82.766C480.186 83.2142 479.936 83.8479 479.974 84.667C480.008 85.3662 480.254 85.9143 480.713 86.3113C481.171 86.6883 481.787 86.9972 482.559 87.238C483.331 87.4787 484.214 87.7339 485.208 88.0033C486.264 88.3097 487.232 88.6806 488.114 89.116C488.996 89.5514 489.715 90.1554 490.272 90.9279C490.828 91.6804 491.136 92.6759 491.194 93.9145C491.246 95.0133 491.015 96.0465 490.5 97.0141C489.986 97.9817 489.193 98.7834 488.121 99.4191C487.049 100.035 485.714 100.384 484.116 100.465Z" fill="#05151E"/>
<rect x="0.523001" y="0.47384" width="334.663" height="46.1596" rx="11.5" transform="matrix(0.998688 -0.0511999 0.0473144 0.99888 206.108 80.7607)" stroke="#29504B"/>
<path d="M352.475 190.567H343.12C335.646 190.567 329.991 197.325 331.307 204.681L332.701 212.472C333.772 218.455 339.148 222.693 345.216 222.338L439.226 216.83C445.57 216.459 450.524 211.206 450.524 204.851V200.756" stroke="#95D4CB" stroke-width="3" stroke-linecap="round" stroke-linejoin="round" stroke-dasharray="24 24"/>
<path d="M542.92 153.472L566.082 156.418C573.766 157.396 578.525 165.288 575.802 172.54L568.986 190.697C567.146 195.597 562.344 198.739 557.118 198.463L441.636 192.364" stroke="#95D4CB" stroke-width="3" stroke-linecap="round" stroke-linejoin="round" stroke-dasharray="24 24"/>
<path d="M174.343 60.2165H204.565C206.945 60.2165 208.875 58.2867 208.875 55.9061V55.9061C208.875 53.5255 210.805 51.5957 213.185 51.5957H276.02C282.648 51.5957 288.02 56.9683 288.02 63.5957V76.4131" stroke="#95D4CB" stroke-width="3" stroke-linecap="round" stroke-linejoin="round" stroke-dasharray="24 24"/>
<path d="M405.136 68.3153L574.952 51.5879C582.011 50.8927 588.129 56.4378 588.129 63.5301V94.7002" stroke="#95D4CB" stroke-width="3" stroke-linecap="round" stroke-linejoin="round" stroke-dasharray="24 24"/>
<path d="M245.708 126.303V147.142C245.708 154.378 252.064 159.968 259.24 159.044L322.511 150.901" stroke="#95D4CB" stroke-width="3" stroke-linecap="round" stroke-linejoin="round" stroke-dasharray="24 24"/>
<rect x="0.495833" y="0.504438" width="245.607" height="46.0225" rx="11.5" transform="matrix(0.99996 0.00891033 -0.00829514 0.999966 318.416 114.804)" fill="#F0A10B"/>
<path d="M374.865 148.824L375.014 130.914L368.894 130.86L368.919 127.77L385.029 127.914L385.003 131.004L378.853 130.949L378.705 148.858L374.865 148.824ZM396.774 149.379C394.674 149.36 392.838 148.884 391.266 147.95C389.713 147.016 388.494 145.735 387.607 144.107C386.741 142.459 386.317 140.566 386.335 138.426C386.352 136.286 386.808 134.41 387.701 132.798C388.615 131.166 389.855 129.897 391.423 128.991C393.011 128.085 394.854 127.641 396.954 127.66C399.034 127.678 400.86 128.155 402.433 129.089C404.005 130.023 405.224 131.314 406.091 132.961C406.957 134.589 407.381 136.473 407.364 138.613C407.346 140.753 406.89 142.639 405.997 144.271C405.103 145.883 403.863 147.142 402.275 148.048C400.688 148.954 398.854 149.398 396.774 149.379ZM396.803 145.929C398.803 145.947 400.398 145.301 401.589 143.992C402.8 142.683 403.415 140.878 403.434 138.578C403.453 136.278 402.868 134.463 401.679 133.132C400.51 131.802 398.926 131.128 396.926 131.11C394.926 131.092 393.32 131.738 392.109 133.047C390.898 134.356 390.283 136.161 390.264 138.461C390.245 140.761 390.83 142.576 392.019 143.907C393.208 145.237 394.803 145.911 396.803 145.929ZM417.815 149.207L417.989 128.207L426.419 128.282C428.599 128.302 430.255 128.827 431.386 129.857C432.538 130.867 433.107 132.162 433.094 133.742C433.083 135.062 432.714 136.119 431.988 136.912C431.281 137.686 430.417 138.208 429.395 138.479C430.592 138.73 431.577 139.339 432.349 140.306C433.122 141.253 433.502 142.356 433.492 143.616C433.478 145.276 432.867 146.641 431.658 147.71C430.449 148.779 428.745 149.304 426.545 149.284L417.815 149.207ZM421.756 137.061L425.776 137.097C426.856 137.107 427.688 136.864 428.272 136.369C428.856 135.874 429.152 135.167 429.16 134.247C429.167 133.367 428.883 132.675 428.307 132.169C427.751 131.644 426.903 131.377 425.763 131.367L421.804 131.331L421.756 137.061ZM421.681 146.121L425.971 146.159C427.111 146.169 427.993 145.917 428.617 145.403C429.262 144.868 429.588 144.121 429.596 143.161C429.604 142.181 429.28 141.408 428.625 140.843C427.97 140.277 427.082 139.989 425.962 139.979L421.732 139.941L421.681 146.121ZM436.74 149.375L436.914 128.376L444.624 128.445C446.304 128.46 447.682 128.762 448.757 129.352C449.852 129.921 450.666 130.699 451.197 131.683C451.729 132.648 451.991 133.72 451.981 134.9C451.97 136.18 451.62 137.347 450.932 138.401C450.263 139.455 449.217 140.216 447.793 140.683L452.07 149.512L447.66 149.473L443.829 141.158L440.649 141.13L440.58 149.409L436.74 149.375ZM440.672 138.31L444.302 138.342C445.582 138.354 446.524 138.052 447.13 137.437C447.735 136.823 448.041 136.005 448.05 134.985C448.058 133.985 447.765 133.183 447.17 132.577C446.595 131.972 445.647 131.664 444.327 131.652L440.728 131.62L440.672 138.31ZM455.431 149.542L455.605 128.542L469.314 128.665L469.289 131.755L459.419 131.667L459.371 137.426L468.341 137.506L468.316 140.506L459.347 140.426L459.296 146.486L469.166 146.574L469.14 149.664L455.431 149.542ZM478.864 149.751L471.358 128.683L475.468 128.719L481.266 145.842L487.378 128.826L491.427 128.862L483.573 149.793L478.864 149.751ZM502.883 150.325C500.783 150.306 498.947 149.83 497.375 148.895C495.822 147.962 494.603 146.681 493.717 145.053C492.85 143.405 492.426 141.511 492.444 139.371C492.461 137.231 492.917 135.355 493.81 133.743C494.724 132.111 495.965 130.842 497.532 129.936C499.12 129.03 500.963 128.587 503.063 128.605C505.143 128.624 506.969 129.1 508.542 130.034C510.114 130.968 511.333 132.259 512.2 133.907C513.066 135.535 513.491 137.419 513.473 139.559C513.455 141.698 512.999 143.584 512.106 145.217C511.212 146.829 509.972 148.088 508.384 148.994C506.797 149.899 504.963 150.343 502.883 150.325ZM502.912 146.875C504.912 146.893 506.507 146.247 507.698 144.937C508.909 143.628 509.524 141.823 509.543 139.524C509.562 137.224 508.977 135.408 507.788 134.078C506.619 132.747 505.035 132.073 503.035 132.055C501.035 132.037 499.429 132.683 498.218 133.992C497.008 135.302 496.393 137.106 496.373 139.406C496.354 141.706 496.939 143.521 498.128 144.852C499.317 146.183 500.912 146.857 502.912 146.875Z" fill="#EFF9F7"/>
<rect x="0.495833" y="0.504438" width="245.607" height="46.0225" rx="11.5" transform="matrix(0.99996 0.00891033 -0.00829514 0.999966 318.416 114.804)" stroke="#AA7208"/>
<rect x="0.525298" y="0.471307" width="107.152" height="36.618" rx="11.5" transform="matrix(0.998429 -0.0560245 0.0521671 0.998638 357.493 173.668)" fill="#05151E"/>
<path d="M371.38 198.71L375.761 184.442L378.637 184.281L384.479 197.975L381.763 198.127L380.476 194.954L375.025 195.26L374.055 198.56L371.38 198.71ZM375.619 193.224L379.673 192.996L377.332 187.298L375.619 193.224ZM386.28 197.874L385.549 183.893L390.322 183.625C391.959 183.533 393.319 183.75 394.401 184.277C395.496 184.79 396.324 185.558 396.885 186.582C397.458 187.591 397.782 188.802 397.856 190.213C397.929 191.624 397.734 192.871 397.27 193.952C396.818 195.019 396.075 195.875 395.041 196.521C394.019 197.152 392.689 197.514 391.052 197.606L386.28 197.874ZM388.721 195.533L390.817 195.416C391.989 195.35 392.904 195.111 393.564 194.701C394.223 194.276 394.68 193.703 394.936 192.981C395.191 192.246 395.293 191.372 395.24 190.36C395.188 189.361 394.996 188.511 394.666 187.808C394.335 187.105 393.821 186.58 393.122 186.232C392.422 185.884 391.487 185.743 390.316 185.809L388.219 185.926L388.721 195.533ZM400.476 197.077L399.746 183.096L404.518 182.828C406.156 182.736 407.515 182.954 408.598 183.481C409.693 183.994 410.52 184.762 411.081 185.785C411.655 186.795 411.978 188.005 412.052 189.416C412.126 190.828 411.931 192.074 411.466 193.155C411.015 194.222 410.272 195.078 409.237 195.724C408.216 196.356 406.886 196.717 405.248 196.809L400.476 197.077ZM402.917 194.737L405.014 194.619C406.185 194.553 407.101 194.315 407.76 193.904C408.419 193.48 408.876 192.907 409.132 192.184C409.388 191.449 409.489 190.575 409.436 189.563C409.384 188.565 409.193 187.714 408.862 187.011C408.532 186.309 408.017 185.784 407.318 185.435C406.619 185.087 405.684 184.946 404.512 185.012L402.415 185.13L402.917 194.737ZM414.147 191.583L414.035 189.445L422.402 188.976L422.513 191.113L414.147 191.583ZM431.765 195.562C430.367 195.64 429.126 195.403 428.043 194.849C426.972 194.295 426.109 193.495 425.454 192.45C424.811 191.391 424.453 190.15 424.378 188.725C424.304 187.3 424.531 186.032 425.061 184.921C425.603 183.795 426.377 182.897 427.383 182.226C428.403 181.555 429.612 181.18 431.01 181.101C432.394 181.024 433.628 181.262 434.712 181.815C435.795 182.369 436.659 183.175 437.301 184.234C437.944 185.279 438.302 186.515 438.376 187.939C438.451 189.364 438.224 190.639 437.695 191.764C437.165 192.875 436.391 193.766 435.371 194.438C434.352 195.109 433.149 195.484 431.765 195.562ZM431.645 193.265C432.976 193.19 434.012 192.691 434.751 191.768C435.504 190.845 435.84 189.617 435.76 188.086C435.68 186.555 435.218 185.372 434.373 184.538C433.542 183.704 432.461 183.324 431.13 183.398C429.798 183.473 428.756 183.972 428.003 184.896C427.251 185.819 426.914 187.047 426.994 188.578C427.074 190.109 427.536 191.292 428.381 192.126C429.226 192.96 430.314 193.34 431.645 193.265ZM440.998 194.803L440.268 180.822L442.824 180.679L449.908 190.157L449.393 180.31L451.949 180.167L452.68 194.148L450.124 194.291L443.041 184.833L443.554 194.66L440.998 194.803Z" fill="#EFF9F7"/>
<rect x="0.525298" y="0.471307" width="107.152" height="36.618" rx="11.5" transform="matrix(0.998429 -0.0560245 0.0521671 0.998638 357.493 173.668)" stroke="#58ADA2"/>
<g filter="url(#filter0_dd_1863_31421)">
<path d="M130.776 25.3331L59.7042 40.6353C53.5435 41.9617 48.5659 46.4609 46.6275 52.4533L24.3183 121.511C22.388 127.491 23.8008 134.053 28.0209 138.708L76.7731 192.467C80.9932 197.122 87.3939 199.182 93.5546 197.856L164.626 182.554C170.787 181.227 175.765 176.728 177.703 170.736L200.012 101.678C201.943 95.698 200.53 89.1363 196.31 84.4807L147.558 30.7226C143.337 26.0669 136.937 24.0067 130.776 25.3331Z" fill="white"/>
<path d="M78.6254 190.788L78.625 190.787L29.8732 137.029C29.8731 137.029 29.8729 137.029 29.8728 137.029C26.2538 133.036 25.0421 127.408 26.6972 122.28C26.6973 122.28 26.6973 122.279 26.6974 122.279L49.0061 53.2228C50.6699 48.0794 54.9413 44.218 60.2304 43.0792L131.302 27.7771C136.591 26.6383 142.085 28.4079 145.705 32.4016L145.706 32.402L194.457 86.1597C194.458 86.1598 194.458 86.16 194.458 86.1601C198.077 90.1529 199.289 95.781 197.633 100.909C197.633 100.909 197.633 100.91 197.633 100.91L175.324 169.966C173.661 175.11 169.389 178.971 164.1 180.11L93.0284 195.412C87.7393 196.551 82.2454 194.781 78.6254 190.788Z" stroke="#81CBC1" stroke-width="5"/>
</g>
<g clip-path="url(#clip1_1863_31421)">
<path d="M162.09 115.068C163.433 119.448 161.938 125.779 158.76 129.137L133.914 155.53C130.736 158.888 124.455 160.814 119.941 159.815L84.5702 151.887C80.0789 150.88 75.2922 146.475 73.9491 142.095L63.4252 107.774C62.0821 103.394 63.5766 97.063 66.7546 93.7049L91.5782 67.3191C94.7562 63.961 101.037 62.035 105.551 63.0344L140.922 70.9625C145.436 71.9619 150.223 76.3672 151.566 80.7471L162.09 115.068Z" fill="#F15A2B"/>
<path d="M101.751 106.098L141.645 93.8646L138.25 82.7912L98.4691 94.9893C92.7796 96.7339 88.6384 100.117 86.2066 105.016C80.3095 116.801 87.1346 139.871 87.1346 139.871L149.582 120.722L143.204 99.923L131.984 103.363L134.967 113.089L95.6869 125.134C94.8284 121.441 94.522 114.433 96.6818 110.109C97.67 108.135 99.2929 106.851 101.751 106.098Z" fill="white"/>
</g>
<g filter="url(#filter1_dd_1863_31421)">
<path d="M717.112 46.3846L647.468 24.1844C641.431 22.26 634.84 23.6947 630.152 27.9519L576.154 77.0273C571.479 81.2776 569.43 87.7074 570.782 93.8788L586.417 165.151C587.769 171.323 592.321 176.321 598.358 178.245L668.002 200.446C674.039 202.37 680.63 200.935 685.318 196.678L739.316 147.603C743.991 143.352 746.041 136.923 744.688 130.751L729.053 59.4788C727.701 53.3074 723.149 48.309 717.112 46.3846Z" fill="white"/>
<path d="M588.859 164.615L588.859 164.616C590.02 169.915 593.93 174.21 599.118 175.863L668.761 198.064C673.948 199.717 679.61 198.485 683.637 194.828L588.859 164.615ZM588.859 164.615L573.224 93.3437C573.224 93.3435 573.224 93.3433 573.224 93.3431C572.063 88.0457 573.823 82.5258 577.835 78.8774C577.835 78.8772 577.835 78.8771 577.835 78.877L631.833 29.8026C635.86 26.1454 641.522 24.9127 646.709 26.5663L716.352 48.7665C721.54 50.4202 725.45 54.7153 726.611 60.0139L726.611 60.0145L742.246 131.286C742.246 131.286 742.246 131.287 742.246 131.287C743.407 136.584 741.647 142.104 737.635 145.753C737.635 145.753 737.635 145.753 737.635 145.753L683.638 194.827L588.859 164.615Z" stroke="#61BEB2" stroke-width="5"/>
</g>
<g clip-path="url(#clip2_1863_31421)">
<path d="M643.474 105.922L656.086 66.3531L680.325 74.0794C688.512 76.689 692.421 83.1143 690.147 90.2481C687.564 98.3535 678.558 102.272 662.648 102.379C651.84 102.324 646.593 103.511 643.97 106.073L643.474 105.92L643.474 105.922ZM630.811 145.647L636.082 129.111C638.408 121.814 646.906 116.664 656.467 116.672C664.994 116.532 672.203 115.97 678.488 114.943C684.349 121.459 686.445 130.157 684.015 137.781C679.881 150.75 664.383 156.348 647.515 150.972L630.811 145.647ZM611.626 154.89L644.381 165.331C669.279 173.267 692.855 163.815 699.367 143.385C702.934 132.195 700.406 120.32 692.318 110.594C699.216 107.075 703.585 101.859 705.91 94.5617C710.716 79.4856 702.948 65.9325 686.409 60.6607L645.79 47.7129L611.626 154.89Z" fill="#0B996E"/>
</g>
</g>
<defs>
<filter id="filter0_dd_1863_31421" x="9.46924" y="20.9375" width="205.393" height="201.314" filterUnits="userSpaceOnUse" color-interpolation-filters="sRGB">
<feFlood flood-opacity="0" result="BackgroundImageFix"/>
<feColorMatrix in="SourceAlpha" type="matrix" values="0 0 0 0 0 0 0 0 0 0 0 0 0 0 0 0 0 0 127 0" result="hardAlpha"/>
<feOffset dy="10"/>
<feGaussianBlur stdDeviation="7"/>
<feComposite in2="hardAlpha" operator="out"/>
<feColorMatrix type="matrix" values="0 0 0 0 0.305882 0 0 0 0 0.298039 0 0 0 0 0.784314 0 0 0 0.01 0"/>
<feBlend mode="normal" in2="BackgroundImageFix" result="effect1_dropShadow_1863_31421"/>
<feColorMatrix in="SourceAlpha" type="matrix" values="0 0 0 0 0 0 0 0 0 0 0 0 0 0 0 0 0 0 127 0" result="hardAlpha"/>
<feOffset dy="9"/>
<feGaussianBlur stdDeviation="6"/>
<feComposite in2="hardAlpha" operator="out"/>
<feColorMatrix type="matrix" values="0 0 0 0 0.152941 0 0 0 0 0.129412 0 0 0 0 0.376471 0 0 0 0.05 0"/>
<feBlend mode="normal" in2="effect1_dropShadow_1863_31421" result="effect2_dropShadow_1863_31421"/>
<feBlend mode="normal" in="SourceGraphic" in2="effect2_dropShadow_1863_31421" result="shape"/>
</filter>
<filter id="filter1_dd_1863_31421" x="556.373" y="19.3447" width="202.725" height="205.94" filterUnits="userSpaceOnUse" color-interpolation-filters="sRGB">
<feFlood flood-opacity="0" result="BackgroundImageFix"/>
<feColorMatrix in="SourceAlpha" type="matrix" values="0 0 0 0 0 0 0 0 0 0 0 0 0 0 0 0 0 0 127 0" result="hardAlpha"/>
<feOffset dy="10"/>
<feGaussianBlur stdDeviation="7"/>
<feComposite in2="hardAlpha" operator="out"/>
<feColorMatrix type="matrix" values="0 0 0 0 0.305882 0 0 0 0 0.298039 0 0 0 0 0.784314 0 0 0 0.01 0"/>
<feBlend mode="normal" in2="BackgroundImageFix" result="effect1_dropShadow_1863_31421"/>
<feColorMatrix in="SourceAlpha" type="matrix" values="0 0 0 0 0 0 0 0 0 0 0 0 0 0 0 0 0 0 127 0" result="hardAlpha"/>
<feOffset dy="9"/>
<feGaussianBlur stdDeviation="6"/>
<feComposite in2="hardAlpha" operator="out"/>
<feColorMatrix type="matrix" values="0 0 0 0 0.152941 0 0 0 0 0.129412 0 0 0 0 0.376471 0 0 0 0.05 0"/>
<feBlend mode="normal" in2="effect1_dropShadow_1863_31421" result="effect2_dropShadow_1863_31421"/>
<feBlend mode="normal" in="SourceGraphic" in2="effect2_dropShadow_1863_31421" result="shape"/>
</filter>
<linearGradient id="paint0_linear_1863_31421" x1="854.185" y1="246.174" x2="584.385" y2="199.22" gradientUnits="userSpaceOnUse">
<stop stop-color="#61BEB2"/>
<stop offset="0.04" stop-color="#61BEB2" stop-opacity="0.95"/>
<stop offset="0.3" stop-color="#61BEB2" stop-opacity="0.69"/>
<stop offset="0.54" stop-color="#61BEB2" stop-opacity="0.48"/>
<stop offset="0.74" stop-color="#61BEB2" stop-opacity="0.33"/>
<stop offset="0.9" stop-color="#61BEB2" stop-opacity="0.23"/>
<stop offset="1" stop-color="#61BEB2" stop-opacity="0.2"/>
</linearGradient>
<linearGradient id="paint1_linear_1863_31421" x1="16.2276" y1="281.004" x2="-24.8928" y2="178.639" gradientUnits="userSpaceOnUse">
<stop stop-color="#61BEB2"/>
<stop offset="0.04" stop-color="#61BEB2" stop-opacity="0.95"/>
<stop offset="0.3" stop-color="#61BEB2" stop-opacity="0.69"/>
<stop offset="0.54" stop-color="#61BEB2" stop-opacity="0.48"/>
<stop offset="0.74" stop-color="#61BEB2" stop-opacity="0.33"/>
<stop offset="0.9" stop-color="#61BEB2" stop-opacity="0.23"/>
<stop offset="1" stop-color="#61BEB2" stop-opacity="0.2"/>
</linearGradient>
<linearGradient id="paint2_linear_1863_31421" x1="403" y1="0" x2="403" y2="262" gradientUnits="userSpaceOnUse">
<stop stop-color="#61BEB2" stop-opacity="0"/>
<stop offset="1" stop-color="#61BEB2"/>
</linearGradient>
<clipPath id="clip0_1863_31421">
<rect width="772" height="250" fill="white"/>
</clipPath>
<clipPath id="clip1_1863_31421">
<rect width="117.744" height="117.744" fill="white" transform="translate(39.3306 72.4893) rotate(-17.0474)"/>
</clipPath>
<clipPath id="clip2_1863_31421">
<rect width="80.2009" height="112.54" fill="white" transform="translate(645.79 47.7129) rotate(17.68)"/>
</clipPath>
</defs>
</svg>
