<svg width="256" height="256" viewBox="0 0 256 256" fill="none" xmlns="http://www.w3.org/2000/svg">
<g clip-path="url(#clip0_1863_31449)">
<rect width="256" height="256" fill="white"/>
<path d="M209.939 135L222.58 88.9121C222.855 87.9085 222.865 86.8505 222.608 85.8421L210.76 39.3973C210.249 37.394 208.743 35.7948 206.774 35.1652L155.46 18.7591C153.94 18.2732 152.289 18.4126 150.872 19.1466L118 36.1772" stroke="#61BEB2" stroke-width="1.5" stroke-linecap="round" stroke-linejoin="round" stroke-dasharray="12 12"/>
<g filter="url(#filter0_dd_1863_31449)">
<path d="M92.2554 14.7572L42.3342 25.5054C38.0069 26.4371 34.5106 29.5974 33.1491 33.8065L17.479 82.3132C16.1232 86.5135 17.1155 91.1224 20.0797 94.3925L54.3235 132.152C57.2877 135.423 61.7836 136.87 66.1109 135.938L116.032 125.19C120.359 124.258 123.856 121.098 125.217 116.889L140.887 68.382C142.243 64.1818 141.251 59.5728 138.287 56.3027L104.043 18.5427C101.079 15.2726 96.5827 13.8255 92.2554 14.7572Z" fill="white"/>
<path d="M92.2554 14.7572L42.3342 25.5054C38.0069 26.4371 34.5106 29.5974 33.1491 33.8065L17.479 82.3132C16.1232 86.5135 17.1155 91.1224 20.0797 94.3925L54.3235 132.152C57.2877 135.423 61.7836 136.87 66.1109 135.938L116.032 125.19C120.359 124.258 123.856 121.098 125.217 116.889L140.887 68.382C142.243 64.1818 141.251 59.5728 138.287 56.3027L104.043 18.5427C101.079 15.2726 96.5827 13.8255 92.2554 14.7572Z" stroke="#95D4CB" stroke-width="2"/>
</g>
<g clip-path="url(#clip1_1863_31449)">
<path d="M116.991 79.8893C117.964 83.0644 116.881 87.6541 114.577 90.0885L96.5653 109.221C94.2615 111.656 89.7082 113.052 86.4357 112.327L60.7948 106.58C57.5389 105.85 54.0689 102.657 53.0953 99.4819L45.4662 74.6018C44.4926 71.4267 45.576 66.837 47.8798 64.4026L65.8751 45.2749C68.1789 42.8405 72.7322 41.4443 76.0046 42.1688L101.646 47.9161C104.918 48.6406 108.388 51.8341 109.362 55.0092L116.991 79.8893Z" fill="#F15A2B"/>
<path d="M73.2498 73.3861L102.17 64.5181L99.7087 56.4907L70.8708 65.3334C66.7464 66.5981 63.7443 69.0506 61.9815 72.6017C57.7065 81.1449 62.6542 97.8691 62.6542 97.8691L107.924 83.9878L103.3 68.91L95.167 71.404L97.3289 78.4544L68.854 87.1858C68.2316 84.5086 68.0095 79.4286 69.5752 76.2942C70.2915 74.8632 71.4681 73.9324 73.2498 73.3861Z" fill="white"/>
</g>
<g filter="url(#filter1_dd_1863_31449)">
<path d="M220.46 137.979L172.265 122.615C168.087 121.283 163.525 122.276 160.281 125.222L122.913 159.184C119.678 162.126 118.259 166.575 119.195 170.846L130.015 220.169C130.951 224.44 134.101 227.899 138.279 229.23L186.475 244.594C190.652 245.925 195.214 244.932 198.458 241.986L235.827 208.025C239.062 205.083 240.48 200.634 239.544 196.363L228.724 147.04C227.788 142.769 224.638 139.31 220.46 137.979Z" fill="white"/>
<path d="M130.992 219.955L130.992 219.954L120.172 170.632C120.172 170.632 120.172 170.632 120.172 170.632C119.313 166.711 120.615 162.625 123.585 159.924C123.585 159.924 123.585 159.924 123.586 159.924L160.954 125.963C163.933 123.257 168.123 122.345 171.961 123.568L220.157 138.931C223.995 140.155 226.888 143.332 227.747 147.254L227.748 147.254L238.567 196.577C239.427 200.498 238.124 204.584 235.154 207.285L197.786 241.246C194.806 243.952 190.616 244.864 186.778 243.641L138.583 228.278C134.745 227.054 131.851 223.876 130.992 219.955Z" stroke="#95D4CB" stroke-width="2"/>
</g>
<g clip-path="url(#clip2_1863_31449)">
<path d="M167.756 180.171L176.61 152.395L193.625 157.818C199.372 159.65 202.116 164.16 200.52 169.168C198.706 174.858 192.385 177.608 181.216 177.684C173.629 177.645 169.946 178.478 168.105 180.277L167.757 180.169L167.756 180.171ZM158.867 208.057L162.568 196.448C164.2 191.326 170.166 187.711 176.877 187.717C182.863 187.618 187.924 187.225 192.335 186.503C196.45 191.077 197.921 197.183 196.215 202.535C193.313 211.639 182.434 215.569 170.593 211.794L158.867 208.057ZM145.4 214.545L168.393 221.874C185.871 227.445 202.42 220.81 206.992 206.469C209.495 198.614 207.721 190.278 202.043 183.45C206.886 180.98 209.952 177.318 211.585 172.196C214.958 161.613 209.505 152.099 197.896 148.399L169.382 139.31L145.4 214.545Z" fill="#0B996E"/>
</g>
</g>
<defs>
<filter id="filter0_dd_1863_31449" x="1.88232" y="9.47949" width="154.602" height="151.736" filterUnits="userSpaceOnUse" color-interpolation-filters="sRGB">
<feFlood flood-opacity="0" result="BackgroundImageFix"/>
<feColorMatrix in="SourceAlpha" type="matrix" values="0 0 0 0 0 0 0 0 0 0 0 0 0 0 0 0 0 0 127 0" result="hardAlpha"/>
<feOffset dy="10"/>
<feGaussianBlur stdDeviation="7"/>
<feComposite in2="hardAlpha" operator="out"/>
<feColorMatrix type="matrix" values="0 0 0 0 0.305882 0 0 0 0 0.298039 0 0 0 0 0.784314 0 0 0 0.01 0"/>
<feBlend mode="normal" in2="BackgroundImageFix" result="effect1_dropShadow_1863_31449"/>
<feColorMatrix in="SourceAlpha" type="matrix" values="0 0 0 0 0 0 0 0 0 0 0 0 0 0 0 0 0 0 127 0" result="hardAlpha"/>
<feOffset dy="9"/>
<feGaussianBlur stdDeviation="6"/>
<feComposite in2="hardAlpha" operator="out"/>
<feColorMatrix type="matrix" values="0 0 0 0 0.152941 0 0 0 0 0.129412 0 0 0 0 0.376471 0 0 0 0.05 0"/>
<feBlend mode="normal" in2="effect1_dropShadow_1863_31449" result="effect2_dropShadow_1863_31449"/>
<feBlend mode="normal" in="SourceGraphic" in2="effect2_dropShadow_1863_31449" result="shape"/>
</filter>
<filter id="filter1_dd_1863_31449" x="104.912" y="118.034" width="148.916" height="151.141" filterUnits="userSpaceOnUse" color-interpolation-filters="sRGB">
<feFlood flood-opacity="0" result="BackgroundImageFix"/>
<feColorMatrix in="SourceAlpha" type="matrix" values="0 0 0 0 0 0 0 0 0 0 0 0 0 0 0 0 0 0 127 0" result="hardAlpha"/>
<feOffset dy="10"/>
<feGaussianBlur stdDeviation="7"/>
<feComposite in2="hardAlpha" operator="out"/>
<feColorMatrix type="matrix" values="0 0 0 0 0.305882 0 0 0 0 0.298039 0 0 0 0 0.784314 0 0 0 0.01 0"/>
<feBlend mode="normal" in2="BackgroundImageFix" result="effect1_dropShadow_1863_31449"/>
<feColorMatrix in="SourceAlpha" type="matrix" values="0 0 0 0 0 0 0 0 0 0 0 0 0 0 0 0 0 0 127 0" result="hardAlpha"/>
<feOffset dy="9"/>
<feGaussianBlur stdDeviation="6"/>
<feComposite in2="hardAlpha" operator="out"/>
<feColorMatrix type="matrix" values="0 0 0 0 0.152941 0 0 0 0 0.129412 0 0 0 0 0.376471 0 0 0 0.05 0"/>
<feBlend mode="normal" in2="effect1_dropShadow_1863_31449" result="effect2_dropShadow_1863_31449"/>
<feBlend mode="normal" in="SourceGraphic" in2="effect2_dropShadow_1863_31449" result="shape"/>
</filter>
<clipPath id="clip0_1863_31449">
<rect width="256" height="256" fill="white"/>
</clipPath>
<clipPath id="clip1_1863_31449">
<rect width="85.3558" height="85.3558" fill="white" transform="translate(27.9995 49.0225) rotate(-17.0474)"/>
</clipPath>
<clipPath id="clip2_1863_31449">
<rect width="56.2988" height="79" fill="white" transform="translate(169.382 139.31) rotate(17.68)"/>
</clipPath>
</defs>
</svg>
