<svg width="1544" height="500" viewBox="0 0 1544 500" fill="none" xmlns="http://www.w3.org/2000/svg">
<g clip-path="url(#clip0_1863_31355)">
<rect width="1544" height="500" fill="white"/>
<g opacity="0.6">
<path d="M1702.45 381.807L1577.73 204.006C1566.92 188.594 1548.76 180.121 1530.02 181.747L1314.14 200.556C1295.45 202.189 1279.04 213.696 1271.14 230.716L1179.95 427.3C1172.05 444.319 1173.83 464.325 1184.64 479.737L1309.35 657.538C1320.16 672.951 1338.33 681.423 1357.06 679.798L1572.95 660.989C1591.64 659.356 1608.05 647.848 1615.95 630.829L1707.13 434.245C1715.03 417.225 1713.26 397.219 1702.45 381.807Z" fill="url(#paint0_linear_1863_31355)" style="mix-blend-mode:overlay"/>
</g>
<g opacity="0.6">
<path d="M130.367 523.319L164.824 442.904C167.811 435.934 166.862 427.917 162.333 421.844L110.119 351.888C105.596 345.832 98.1764 342.653 90.6722 343.555L4.00605 354.002C-3.49816 354.905 -9.97418 359.754 -12.961 366.725L-47.418 447.139C-50.4049 454.109 -49.4559 462.126 -44.9268 468.199L7.28735 538.155C11.8098 544.211 19.2297 547.391 26.7339 546.488L113.4 536.041C120.904 535.139 127.38 530.289 130.367 523.319Z" fill="url(#paint1_linear_1863_31355)" style="mix-blend-mode:overlay"/>
</g>
<rect width="1544" height="500" fill="url(#paint2_linear_1863_31355)" fill-opacity="0.5"/>
<rect x="0.523096" y="0.473932" width="642" height="89" rx="11.5" transform="matrix(0.998698 -0.051007 0.0474933 0.998872 459.978 159.824)" fill="white"/>
<path d="M535.403 225.877C530.789 226.112 526.708 225.269 523.159 223.348C519.611 221.426 516.792 218.65 514.704 215.018C512.614 211.34 511.45 207.007 511.213 202.02C510.973 196.985 511.742 192.507 513.517 188.585C515.337 184.613 518.014 181.463 521.547 179.133C525.125 176.754 529.431 175.436 534.464 175.179C540.197 174.886 545.016 176.018 548.922 178.576C552.827 181.133 555.455 184.807 556.804 189.598L546.807 190.109C545.953 187.863 544.517 186.16 542.5 185.002C540.48 183.796 537.932 183.272 534.856 183.429C529.963 183.679 526.262 185.434 523.754 188.693C521.244 191.905 520.117 196.214 520.374 201.622C520.631 207.029 522.136 211.158 524.887 214.008C527.684 216.809 531.342 218.094 535.863 217.863C540.29 217.637 543.566 216.278 545.69 213.786C547.859 211.246 549.083 208.006 549.363 204.066L536.989 204.698L536.67 197.986L558.062 196.893L559.342 223.813L551.093 224.234L550.088 217.837C548.614 220.249 546.718 222.145 544.401 223.525C542.084 224.905 539.085 225.689 535.403 225.877ZM568.041 223.369L565.714 174.424L583.681 173.506C587.595 173.306 590.843 173.818 593.424 175.041C596.05 176.215 598.046 177.913 599.413 180.132C600.778 182.306 601.525 184.767 601.656 187.517C601.798 190.501 601.135 193.268 599.668 195.82C598.248 198.369 595.909 200.287 592.654 201.575L603.765 221.544L593.488 222.069L583.482 203.235L576.072 203.613L576.989 222.912L568.041 223.369ZM575.759 197.041L584.218 196.609C587.201 196.456 589.357 195.622 590.687 194.106C592.016 192.589 592.624 190.642 592.511 188.265C592.401 185.934 591.613 184.105 590.148 182.778C588.73 181.449 586.483 180.863 583.407 181.02L575.018 181.448L575.759 197.041ZM608.452 221.305L624.021 171.446L634.088 170.932L654.312 218.962L644.804 219.448L640.351 208.321L621.266 209.295L617.82 220.826L608.452 221.305ZM623.38 202.178L637.572 201.454L629.473 181.471L623.38 202.178ZM668.595 218.233L648.371 170.202L657.948 169.713L673.682 208.791L685.702 168.296L695.14 167.814L679.57 217.672L668.595 218.233ZM703.285 216.461L700.958 167.516L709.906 167.059L712.233 216.004L703.285 216.461ZM733.113 214.938L731.128 173.195L716.867 173.923L716.524 166.721L754.065 164.804L754.408 172.006L740.076 172.738L742.061 214.481L733.113 214.938ZM775.675 212.764L774.847 195.354L756.919 164.658L767.056 164.141L778.966 186.172L788.658 163.037L798.655 162.527L783.795 194.897L784.623 212.307L775.675 212.764ZM823.372 210.328L821.045 161.383L852.644 159.769L852.986 166.971L830.336 168.128L830.988 181.833L849.304 180.897L849.639 187.959L831.323 188.895L832.321 209.871L823.372 210.328ZM884.847 208.029C879.953 208.279 875.615 207.426 871.831 205.47C868.093 203.511 865.086 200.698 862.81 197.029C860.577 193.311 859.343 188.959 859.105 183.971C858.868 178.983 859.685 174.549 861.556 170.669C863.472 166.739 866.196 163.61 869.73 161.28C873.31 158.947 877.546 157.656 882.44 157.406C887.287 157.159 891.602 158.013 895.386 159.969C899.17 161.926 902.178 164.763 904.41 168.48C906.641 172.151 907.874 176.48 908.112 181.468C908.349 186.456 907.533 190.913 905.664 194.84C903.793 198.721 901.067 201.827 897.487 204.159C893.907 206.492 889.694 207.782 884.847 208.029ZM884.465 199.988C889.125 199.75 892.757 198.023 895.361 194.806C898.011 191.586 899.208 187.297 898.953 181.936C898.699 176.575 897.1 172.428 894.157 169.494C891.261 166.558 887.483 165.209 882.822 165.447C878.162 165.685 874.506 167.414 871.856 170.633C869.206 173.853 868.009 178.143 868.263 183.503C868.518 188.864 870.117 193.011 873.06 195.945C876.002 198.879 879.804 200.226 884.465 199.988ZM917.176 205.537L914.849 156.592L932.815 155.675C936.73 155.475 939.978 155.986 942.559 157.21C945.185 158.384 947.181 160.081 948.548 162.301C949.912 164.474 950.66 166.936 950.791 169.686C950.933 172.669 950.27 175.437 948.803 177.988C947.382 180.537 945.044 182.456 941.788 183.743L952.899 203.712L942.623 204.237L932.617 185.403L925.207 185.782L926.124 205.08L917.176 205.537ZM924.894 179.209L933.353 178.777C936.336 178.625 938.492 177.79 939.821 176.274C941.151 174.758 941.759 172.811 941.646 170.433C941.535 168.103 940.748 166.274 939.283 164.947C937.865 163.617 935.618 163.031 932.542 163.188L924.153 163.617L924.894 179.209ZM960.732 203.312L958.405 154.368L969.031 153.825L986.097 184.074L1000 152.243L1010.63 151.701L1012.95 200.645L1004.01 201.102L1002.4 167.33L990.041 194.806L982.981 195.167L968.075 169.084L969.681 202.855L960.732 203.312ZM1039.2 200.146C1035.61 200.329 1032.41 199.885 1029.6 198.814C1026.79 197.696 1024.54 196.035 1022.85 193.832C1021.15 191.582 1020.2 188.803 1020 185.496L1029.44 185.014C1029.64 187.294 1030.55 189.186 1032.16 190.693C1033.82 192.15 1036.02 192.809 1038.77 192.668C1041.15 192.547 1043.01 191.891 1044.35 190.701C1045.7 189.464 1046.32 187.89 1046.23 185.979C1046.14 183.974 1045.43 182.445 1044.12 181.391C1042.86 180.334 1041.18 179.508 1039.1 178.914C1037.01 178.319 1034.79 177.685 1032.42 177.012C1028.58 175.899 1025.61 174.369 1023.51 172.42C1021.46 170.469 1020.35 167.792 1020.19 164.389C1020 161.502 1020.56 158.997 1021.86 156.874C1023.21 154.703 1025.09 152.995 1027.51 151.75C1029.92 150.458 1032.74 149.73 1035.95 149.566C1039.21 149.399 1042.11 149.836 1044.63 150.875C1047.21 151.912 1049.24 153.443 1050.74 155.469C1052.28 157.493 1053.17 159.948 1053.4 162.833L1043.82 163.322C1043.69 161.6 1042.95 160.12 1041.58 158.881C1040.26 157.594 1038.45 157.008 1036.17 157.125C1034.21 157.178 1032.58 157.752 1031.28 158.847C1030.02 159.892 1029.43 161.37 1029.53 163.282C1029.6 164.913 1030.18 166.192 1031.25 167.119C1032.32 167.999 1033.75 168.72 1035.56 169.282C1037.36 169.844 1039.42 170.44 1041.74 171.069C1044.2 171.784 1046.46 172.65 1048.52 173.666C1050.58 174.683 1052.26 176.092 1053.56 177.895C1054.85 179.651 1055.57 181.974 1055.71 184.864C1055.83 187.428 1055.29 189.838 1054.09 192.096C1052.89 194.353 1051.04 196.224 1048.54 197.706C1046.04 199.142 1042.93 199.956 1039.2 200.146Z" fill="#05151E"/>
<rect x="0.523096" y="0.473932" width="642" height="89" rx="11.5" transform="matrix(0.998698 -0.051007 0.0474933 0.998872 459.978 159.824)" stroke="#29504B"/>
<path d="M741.348 370H710.338C702.865 370 697.209 376.757 698.526 384.114L705.219 421.511C706.29 427.495 711.665 431.732 717.733 431.377L917.715 419.662C924.059 419.29 929.013 414.037 929.013 407.682V389.5" stroke="#95D4CB" stroke-width="3" stroke-linecap="round" stroke-linejoin="round" stroke-dasharray="24 24"/>
<path d="M1105.86 299L1163.95 306.39C1171.63 307.367 1176.39 315.26 1173.67 322.511L1152.92 377.771C1151.08 382.67 1146.28 385.812 1141.05 385.536L912 373.439" stroke="#95D4CB" stroke-width="3" stroke-linecap="round" stroke-linejoin="round" stroke-dasharray="24 24"/>
<path d="M400.408 120.512H458.251C462.807 120.512 466.501 116.818 466.501 112.262V112.262C466.501 107.705 470.195 104.012 474.751 104.012H605.984C612.611 104.012 617.984 109.384 617.984 116.012V151.512" stroke="#95D4CB" stroke-width="3" stroke-linecap="round" stroke-linejoin="round" stroke-dasharray="24 24"/>
<path d="M842.141 136.013L1179.21 102.811C1186.27 102.115 1192.38 107.66 1192.38 114.753V186.513" stroke="#95D4CB" stroke-width="3" stroke-linecap="round" stroke-linejoin="round" stroke-dasharray="24 24"/>
<path d="M537 247V299.357C537 306.592 543.356 312.182 550.532 311.258L684 294.08" stroke="#95D4CB" stroke-width="3" stroke-linecap="round" stroke-linejoin="round" stroke-dasharray="24 24"/>
<rect x="0.495833" y="0.504438" width="471" height="89" rx="11.5" transform="matrix(0.99996 0.00891033 -0.00829514 0.999966 676.159 224.996)" fill="#F0A10B"/>
<path d="M756.249 294.716L756.596 252.928L742.317 252.8L742.376 245.591L779.965 245.926L779.905 253.135L765.556 253.008L765.209 294.796L756.249 294.716ZM807.37 296.012C802.471 295.968 798.186 294.857 794.518 292.677C790.896 290.498 788.05 287.509 785.982 283.711C783.96 279.866 782.97 275.447 783.012 270.454C783.053 265.461 784.116 261.083 786.201 257.322C788.332 253.514 791.227 250.553 794.885 248.439C798.589 246.325 802.891 245.29 807.791 245.334C812.644 245.377 816.905 246.488 820.574 248.668C824.242 250.847 827.087 253.859 829.109 257.704C831.131 261.502 832.121 265.898 832.08 270.891C832.038 275.884 830.975 280.285 828.89 284.093C826.805 287.855 823.911 290.792 820.207 292.906C816.502 295.02 812.223 296.055 807.37 296.012ZM807.437 287.962C812.104 288.004 815.826 286.497 818.605 283.441C821.43 280.386 822.865 276.176 822.91 270.809C822.954 265.443 821.59 261.207 818.815 258.102C816.088 254.998 812.39 253.425 807.724 253.383C803.057 253.342 799.312 254.848 796.486 257.903C793.661 260.958 792.226 265.169 792.181 270.535C792.137 275.902 793.502 280.138 796.276 283.242C799.05 286.347 802.771 287.921 807.437 287.962ZM856.466 295.609L856.873 246.611L876.542 246.786C881.628 246.832 885.492 248.056 888.132 250.46C890.819 252.817 892.147 255.839 892.117 259.525C892.091 262.605 891.231 265.071 889.535 266.923C887.887 268.728 885.87 269.947 883.485 270.579C886.28 271.164 888.578 272.584 890.38 274.841C892.181 277.05 893.07 279.625 893.046 282.565C893.013 286.438 891.587 289.622 888.766 292.117C885.945 294.612 881.968 295.837 876.835 295.791L856.466 295.609ZM865.662 267.27L875.041 267.354C877.561 267.376 879.503 266.81 880.865 265.655C882.228 264.501 882.919 262.85 882.937 260.704C882.954 258.65 882.29 257.035 880.947 255.856C879.65 254.631 877.672 254.007 875.012 253.983L865.772 253.901L865.662 267.27ZM865.486 288.409L875.496 288.499C878.156 288.522 880.214 287.934 881.671 286.733C883.174 285.487 883.936 283.744 883.954 281.504C883.973 279.217 883.218 277.414 881.689 276.093C880.16 274.773 878.089 274.101 875.475 274.078L865.606 273.99L865.486 288.409ZM900.625 296.003L901.031 247.004L919.02 247.165C922.94 247.2 926.154 247.905 928.663 249.281C931.219 250.61 933.117 252.424 934.358 254.722C935.6 256.973 936.209 259.475 936.186 262.228C936.161 265.215 935.345 267.938 933.738 270.397C932.178 272.856 929.736 274.631 926.414 275.722L936.393 296.321L926.104 296.23L917.164 276.829L909.744 276.763L909.584 296.083L900.625 296.003ZM909.799 270.183L918.269 270.259C921.255 270.286 923.455 269.582 924.866 268.148C926.278 266.714 926.994 264.806 927.014 262.427C927.033 260.093 926.349 258.22 924.961 256.808C923.619 255.396 921.408 254.676 918.328 254.649L909.929 254.574L909.799 270.183ZM944.236 296.391L944.643 247.393L976.631 247.678L976.571 254.888L953.542 254.683L953.431 268.122L974.36 268.309L974.302 275.308L953.373 275.122L953.256 289.261L976.285 289.467L976.225 296.676L944.236 296.391ZM998.913 296.879L981.4 247.721L990.989 247.806L1004.52 287.758L1018.78 248.054L1028.23 248.138L1009.9 296.976L998.913 296.879ZM1054.96 298.218C1050.06 298.174 1045.77 297.063 1042.11 294.883C1038.48 292.704 1035.64 289.716 1033.57 285.917C1031.55 282.072 1030.56 277.653 1030.6 272.66C1030.64 267.667 1031.7 263.289 1033.79 259.528C1035.92 255.72 1038.81 252.759 1042.47 250.645C1046.18 248.531 1050.48 247.496 1055.38 247.54C1060.23 247.583 1064.49 248.694 1068.16 250.874C1071.83 253.053 1074.68 256.065 1076.7 259.91C1078.72 263.708 1079.71 268.104 1079.67 273.097C1079.63 278.09 1078.56 282.491 1076.48 286.299C1074.39 290.061 1071.5 292.999 1067.79 295.112C1064.09 297.226 1059.81 298.261 1054.96 298.218ZM1055.02 290.168C1059.69 290.21 1063.41 288.703 1066.19 285.648C1069.02 282.593 1070.45 278.382 1070.5 273.015C1070.54 267.649 1069.18 263.413 1066.4 260.308C1063.68 257.204 1059.98 255.631 1055.31 255.589C1050.65 255.548 1046.9 257.055 1044.07 260.11C1041.25 263.164 1039.81 267.375 1039.77 272.742C1039.72 278.108 1041.09 282.344 1043.86 285.449C1046.64 288.553 1050.36 290.127 1055.02 290.168Z" fill="#EFF9F7"/>
<rect x="0.495833" y="0.504438" width="471" height="89" rx="11.5" transform="matrix(0.99996 0.00891033 -0.00829514 0.999966 676.159 224.996)" stroke="#AA7208"/>
<rect x="0.525298" y="0.471307" width="206" height="71" rx="11.5" transform="matrix(0.998429 -0.0560245 0.0521671 0.998638 750.976 337.628)" fill="#05151E"/>
<path d="M774.495 386.357L783.259 357.821L789.01 357.499L800.694 384.887L795.263 385.192L792.688 378.846L781.785 379.458L779.847 386.057L774.495 386.357ZM782.975 375.385L791.082 374.93L786.401 363.534L782.975 375.385ZM804.295 384.685L802.835 356.723L812.38 356.187C815.655 356.003 818.374 356.438 820.539 357.492C822.729 358.518 824.384 360.054 825.506 362.101C826.653 364.12 827.3 366.541 827.448 369.364C827.595 372.186 827.205 374.679 826.276 376.841C825.373 378.975 823.887 380.688 821.818 381.979C819.775 383.242 817.115 383.965 813.84 384.149L804.295 384.685ZM809.178 380.004L813.371 379.769C815.714 379.637 817.545 379.16 818.864 378.339C820.182 377.49 821.096 376.344 821.608 374.899C822.119 373.429 822.322 371.681 822.216 369.657C822.111 367.66 821.729 365.959 821.068 364.554C820.407 363.148 819.378 362.098 817.979 361.402C816.581 360.706 814.711 360.423 812.368 360.555L808.174 360.79L809.178 380.004ZM832.688 383.092L831.228 355.13L840.773 354.594C844.047 354.41 846.767 354.845 848.932 355.899C851.122 356.925 852.777 358.461 853.899 360.508C855.046 362.527 855.693 364.948 855.84 367.77C855.988 370.593 855.597 373.086 854.669 375.248C853.766 377.382 852.28 379.094 850.211 380.386C848.167 381.649 845.508 382.372 842.233 382.556L832.688 383.092ZM837.571 378.411L841.764 378.175C844.107 378.044 845.938 377.567 847.257 376.745C848.574 375.897 849.489 374.751 850.001 373.306C850.512 371.835 850.714 370.088 850.609 368.064C850.504 366.067 850.122 364.366 849.461 362.96C848.8 361.555 847.77 360.505 846.372 359.808C844.974 359.112 843.103 358.83 840.76 358.962L836.567 359.197L837.571 378.411ZM860.03 372.103L859.806 367.828L876.54 366.889L876.763 371.164L860.03 372.103ZM895.266 380.061C892.471 380.218 889.989 379.743 887.822 378.636C885.681 377.527 883.955 375.928 882.644 373.838C881.359 371.72 880.642 369.237 880.493 366.387C880.344 363.538 880.799 361.002 881.858 358.779C882.942 356.528 884.49 354.732 886.503 353.39C888.542 352.047 890.96 351.297 893.755 351.14C896.524 350.985 898.993 351.461 901.16 352.568C903.327 353.675 905.054 355.287 906.339 357.405C907.623 359.496 908.34 361.967 908.489 364.816C908.638 367.666 908.183 370.215 907.126 372.465C906.067 374.687 904.518 376.47 902.479 377.813C900.439 379.156 898.035 379.905 895.266 380.061ZM895.026 375.467C897.689 375.318 899.759 374.32 901.239 372.474C902.744 370.627 903.417 368.172 903.257 365.11C903.097 362.047 902.172 359.682 900.483 358.014C898.82 356.345 896.658 355.585 893.995 355.734C891.333 355.883 889.249 356.882 887.743 358.729C886.238 360.576 885.565 363.031 885.725 366.094C885.885 369.156 886.809 371.521 888.499 373.189C890.188 374.857 892.364 375.617 895.026 375.467ZM913.733 378.544L912.272 350.582L917.384 350.295L931.552 369.251L930.523 349.558L935.635 349.271L937.096 377.233L931.984 377.52L917.818 358.604L918.845 378.257L913.733 378.544Z" fill="#EFF9F7"/>
<rect x="0.525298" y="0.471307" width="206" height="71" rx="11.5" transform="matrix(0.998429 -0.0560245 0.0521671 0.998638 750.976 337.628)" stroke="#58ADA2"/>
<g filter="url(#filter0_dd_1863_31355)">
<path d="M317.023 53.744L180.993 83.032C169.202 85.5707 159.675 94.1821 155.965 105.652L113.265 237.827C109.571 249.272 112.275 261.831 120.352 270.742L213.663 373.634C221.74 382.545 233.991 386.488 245.782 383.949L381.812 354.661C393.604 352.122 403.131 343.511 406.841 332.042L449.54 199.866C453.235 188.421 450.531 175.862 442.453 166.951L349.143 64.0593C341.066 55.1485 328.815 51.2053 317.023 53.744Z" fill="white"/>
<path d="M215.515 371.954L215.515 371.955C222.992 380.204 234.336 383.856 245.256 381.505L381.286 352.217C392.206 349.866 401.027 341.893 404.462 331.272L447.161 199.098C450.581 188.504 448.078 176.878 440.601 168.63L347.291 65.7387L347.29 65.7383C339.813 57.4895 328.469 53.8369 317.549 56.188L181.52 85.476C170.6 87.827 161.779 95.8001 158.344 106.42L215.515 371.954ZM215.515 371.954L122.205 269.063C122.204 269.063 122.204 269.063 122.204 269.063C114.728 260.815 112.225 249.189 115.644 238.596C115.645 238.595 115.645 238.595 115.645 238.595L158.343 106.421L215.515 371.954Z" stroke="#81CBC1" stroke-width="5"/>
</g>
<g clip-path="url(#clip1_1863_31355)">
<path d="M376.958 225.495C379.529 233.878 376.669 245.996 370.586 252.423L323.031 302.938C316.948 309.365 304.926 313.052 296.286 311.139L228.588 295.965C219.991 294.039 210.83 285.607 208.259 277.224L188.117 211.535C185.546 203.151 188.406 191.033 194.489 184.606L242.001 134.104C248.084 127.677 260.106 123.991 268.745 125.904L336.444 141.078C345.084 142.991 354.245 151.422 356.816 159.805L376.958 225.495Z" fill="#F15A2B"/>
<path d="M261.472 208.325L337.828 184.912L331.329 163.717L255.19 187.064C244.301 190.403 236.375 196.879 231.72 206.254C220.433 228.81 233.496 272.966 233.496 272.966L353.019 236.316L340.812 196.507L319.338 203.092L325.046 221.707L249.865 244.76C248.222 237.691 247.636 224.279 251.77 216.003C253.661 212.225 256.767 209.768 261.472 208.325Z" fill="white"/>
</g>
<g filter="url(#filter1_dd_1863_31355)">
<path d="M1439.26 94.0374L1305.96 51.5467C1294.41 47.8634 1281.79 50.6094 1272.82 58.7576L1169.46 152.687C1160.52 160.822 1156.59 173.128 1159.18 184.94L1189.11 321.354C1191.7 333.166 1200.41 342.733 1211.96 346.416L1345.26 388.907C1356.81 392.59 1369.43 389.844 1378.4 381.696L1481.75 287.767C1490.7 279.632 1494.62 267.325 1492.04 255.513L1462.11 119.099C1459.52 107.287 1450.81 97.7207 1439.26 94.0374Z" fill="white"/>
<path d="M1191.55 320.818L1191.55 320.819C1193.95 331.758 1202.02 340.622 1212.72 344.034L1346.02 386.525C1356.72 389.937 1368.41 387.393 1376.72 379.845L1480.07 285.917C1488.36 278.384 1491.99 266.987 1489.59 256.048L1459.67 119.635L1459.67 119.634C1457.27 108.695 1449.2 99.8318 1438.5 96.4194L1305.2 53.9286C1294.5 50.5162 1282.81 53.0599 1274.5 60.6077L1191.55 320.818ZM1191.55 320.818L1161.63 184.405C1161.63 184.405 1161.63 184.405 1161.63 184.405C1159.23 173.467 1162.86 162.07 1171.15 154.537C1171.15 154.537 1171.15 154.537 1171.15 154.536L1274.5 60.6083L1191.55 320.818Z" stroke="#61BEB2" stroke-width="5"/>
</g>
<g clip-path="url(#clip2_1863_31355)">
<path d="M1288.77 207.018L1314.84 125.257L1364.92 141.222C1381.84 146.614 1389.91 159.891 1385.22 174.631C1379.88 191.379 1361.27 199.475 1328.39 199.697C1306.06 199.584 1295.22 202.036 1289.8 207.329L1288.78 207.014L1288.77 207.018ZM1262.61 289.102L1273.5 254.932C1278.31 239.855 1295.87 229.214 1315.62 229.231C1333.24 228.941 1348.14 227.781 1361.12 225.657C1373.23 239.121 1377.57 257.095 1372.54 272.847C1364 299.646 1331.98 311.213 1297.12 300.103L1262.61 289.102ZM1222.97 308.2L1290.65 329.774C1342.1 346.172 1390.81 326.641 1404.27 284.427C1411.64 261.306 1406.41 236.769 1389.7 216.672C1403.95 209.4 1412.98 198.622 1417.79 183.544C1427.72 152.393 1411.67 124.388 1377.49 113.495L1293.56 86.7412L1222.97 308.2Z" fill="#0B996E"/>
</g>
</g>
<defs>
<filter id="filter0_dd_1863_31355" x="97.6401" y="48.9863" width="367.525" height="359.721" filterUnits="userSpaceOnUse" color-interpolation-filters="sRGB">
<feFlood flood-opacity="0" result="BackgroundImageFix"/>
<feColorMatrix in="SourceAlpha" type="matrix" values="0 0 0 0 0 0 0 0 0 0 0 0 0 0 0 0 0 0 127 0" result="hardAlpha"/>
<feOffset dy="10"/>
<feGaussianBlur stdDeviation="7"/>
<feComposite in2="hardAlpha" operator="out"/>
<feColorMatrix type="matrix" values="0 0 0 0 0.305882 0 0 0 0 0.298039 0 0 0 0 0.784314 0 0 0 0.01 0"/>
<feBlend mode="normal" in2="BackgroundImageFix" result="effect1_dropShadow_1863_31355"/>
<feColorMatrix in="SourceAlpha" type="matrix" values="0 0 0 0 0 0 0 0 0 0 0 0 0 0 0 0 0 0 127 0" result="hardAlpha"/>
<feOffset dy="9"/>
<feGaussianBlur stdDeviation="6"/>
<feComposite in2="hardAlpha" operator="out"/>
<feColorMatrix type="matrix" values="0 0 0 0 0.152941 0 0 0 0 0.129412 0 0 0 0 0.376471 0 0 0 0.05 0"/>
<feBlend mode="normal" in2="effect1_dropShadow_1863_31355" result="effect2_dropShadow_1863_31355"/>
<feBlend mode="normal" in="SourceGraphic" in2="effect2_dropShadow_1863_31355" result="shape"/>
</filter>
<filter id="filter1_dd_1863_31355" x="1144.4" y="45.9395" width="362.421" height="368.575" filterUnits="userSpaceOnUse" color-interpolation-filters="sRGB">
<feFlood flood-opacity="0" result="BackgroundImageFix"/>
<feColorMatrix in="SourceAlpha" type="matrix" values="0 0 0 0 0 0 0 0 0 0 0 0 0 0 0 0 0 0 127 0" result="hardAlpha"/>
<feOffset dy="10"/>
<feGaussianBlur stdDeviation="7"/>
<feComposite in2="hardAlpha" operator="out"/>
<feColorMatrix type="matrix" values="0 0 0 0 0.305882 0 0 0 0 0.298039 0 0 0 0 0.784314 0 0 0 0.01 0"/>
<feBlend mode="normal" in2="BackgroundImageFix" result="effect1_dropShadow_1863_31355"/>
<feColorMatrix in="SourceAlpha" type="matrix" values="0 0 0 0 0 0 0 0 0 0 0 0 0 0 0 0 0 0 127 0" result="hardAlpha"/>
<feOffset dy="9"/>
<feGaussianBlur stdDeviation="6"/>
<feComposite in2="hardAlpha" operator="out"/>
<feColorMatrix type="matrix" values="0 0 0 0 0.152941 0 0 0 0 0.129412 0 0 0 0 0.376471 0 0 0 0.05 0"/>
<feBlend mode="normal" in2="effect1_dropShadow_1863_31355" result="effect2_dropShadow_1863_31355"/>
<feBlend mode="normal" in="SourceGraphic" in2="effect2_dropShadow_1863_31355" result="shape"/>
</filter>
<linearGradient id="paint0_linear_1863_31355" x1="1701.61" y1="476.43" x2="1185.22" y2="386.561" gradientUnits="userSpaceOnUse">
<stop stop-color="#61BEB2"/>
<stop offset="0.04" stop-color="#61BEB2" stop-opacity="0.95"/>
<stop offset="0.3" stop-color="#61BEB2" stop-opacity="0.69"/>
<stop offset="0.54" stop-color="#61BEB2" stop-opacity="0.48"/>
<stop offset="0.74" stop-color="#61BEB2" stop-opacity="0.33"/>
<stop offset="0.9" stop-color="#61BEB2" stop-opacity="0.23"/>
<stop offset="1" stop-color="#61BEB2" stop-opacity="0.2"/>
</linearGradient>
<linearGradient id="paint1_linear_1863_31355" x1="97.7802" y1="543.094" x2="19.0768" y2="347.169" gradientUnits="userSpaceOnUse">
<stop stop-color="#61BEB2"/>
<stop offset="0.04" stop-color="#61BEB2" stop-opacity="0.95"/>
<stop offset="0.3" stop-color="#61BEB2" stop-opacity="0.69"/>
<stop offset="0.54" stop-color="#61BEB2" stop-opacity="0.48"/>
<stop offset="0.74" stop-color="#61BEB2" stop-opacity="0.33"/>
<stop offset="0.9" stop-color="#61BEB2" stop-opacity="0.23"/>
<stop offset="1" stop-color="#61BEB2" stop-opacity="0.2"/>
</linearGradient>
<linearGradient id="paint2_linear_1863_31355" x1="772" y1="0" x2="772" y2="500" gradientUnits="userSpaceOnUse">
<stop stop-color="#61BEB2" stop-opacity="0"/>
<stop offset="1" stop-color="#61BEB2"/>
</linearGradient>
<clipPath id="clip0_1863_31355">
<rect width="1544" height="500" fill="white"/>
</clipPath>
<clipPath id="clip1_1863_31355">
<rect width="225.36" height="225.36" fill="white" transform="translate(142 144) rotate(-17.0474)"/>
</clipPath>
<clipPath id="clip2_1863_31355">
<rect width="165.718" height="232.54" fill="white" transform="translate(1293.56 86.7412) rotate(17.68)"/>
</clipPath>
</defs>
</svg>
