<svg width="128" height="128" viewBox="0 0 128 128" fill="none" xmlns="http://www.w3.org/2000/svg">
<g clip-path="url(#clip0_1863_31457)">
<rect width="128" height="128" fill="white"/>
<path d="M102.385 65.2227L108.311 43.5506C108.585 42.5497 108.594 41.4949 108.338 40.4892L103.204 20.2983C102.694 18.2949 101.189 16.6949 99.2208 16.0637L77.1505 8.98606C75.627 8.49748 73.9714 8.63764 72.5517 9.3754L57.7285 17.0782" stroke="#61BEB2" stroke-linecap="round" stroke-linejoin="round" stroke-dasharray="6 6"/>
<g filter="url(#filter0_dd_1863_31457)">
<path d="M45.3094 6.88178L21.0276 12.1098C18.9228 12.5629 17.2222 14.1001 16.56 16.1474L8.93799 39.7412C8.27853 41.7842 8.7612 44.026 10.203 45.6166L26.8592 63.9831C28.301 65.5737 30.4879 66.2776 32.5927 65.8244L56.8744 60.5964C58.9792 60.1432 60.6798 58.6061 61.3421 56.5588L68.9641 32.965C69.6235 30.922 69.1409 28.6802 67.699 27.0896L51.0428 8.72309C49.601 7.13248 47.4142 6.4286 45.3094 6.88178Z" fill="white"/>
<path d="M45.3094 6.88178L21.0276 12.1098C18.9228 12.5629 17.2222 14.1001 16.56 16.1474L8.93799 39.7412C8.27853 41.7842 8.7612 44.026 10.203 45.6166L26.8592 63.9831C28.301 65.5737 30.4879 66.2776 32.5927 65.8244L56.8744 60.5964C58.9792 60.1432 60.6798 58.6061 61.3421 56.5588L68.9641 32.965C69.6235 30.922 69.1409 28.6802 67.699 27.0896L51.0428 8.72309C49.601 7.13248 47.4142 6.4286 45.3094 6.88178Z" stroke="#95D4CB"/>
</g>
<g clip-path="url(#clip1_1863_31457)">
<path d="M57.3408 38.5616C57.8143 40.106 57.2874 42.3384 56.1668 43.5225L47.4058 52.8287C46.2853 54.0128 44.0705 54.6919 42.4788 54.3395L30.007 51.544C28.4233 51.1892 26.7355 49.6359 26.2619 48.0915L22.5511 35.9898C22.0776 34.4454 22.6045 32.2129 23.7251 31.0289L32.4781 21.7251C33.5986 20.541 35.8134 19.8619 37.4051 20.2143L49.8769 23.0098C51.4686 23.3622 53.1564 24.9155 53.63 26.4599L57.3408 38.5616Z" fill="#F15A2B"/>
<path d="M36.0652 35.3985L50.1321 31.0851L48.9348 27.1805L34.908 31.4816C32.9019 32.0968 31.4417 33.2897 30.5842 35.017C28.5048 39.1724 30.9114 47.3071 30.9114 47.3071L52.9306 40.5552L50.6818 33.2213L46.7257 34.4344L47.7773 37.8637L33.927 42.1107C33.6243 40.8085 33.5163 38.3376 34.2778 36.813C34.6263 36.117 35.1985 35.6642 36.0652 35.3985Z" fill="white"/>
</g>
<g filter="url(#filter1_dd_1863_31457)">
<path d="M107.669 66.8157L84.2262 59.3429C82.1942 58.6952 79.9753 59.1781 78.3974 60.6111L60.2212 77.1302C58.6478 78.5608 57.9579 80.7251 58.4131 82.8025L63.6759 106.793C64.1311 108.871 65.6634 110.553 67.6955 111.201L91.1378 118.673C93.1699 119.321 95.3887 118.838 96.9667 117.405L115.143 100.886C116.716 99.4556 117.406 97.2913 116.951 95.2139L111.688 71.2232C111.233 69.1459 109.701 67.4634 107.669 66.8157Z" fill="white"/>
<path d="M64.1643 106.686L64.1643 106.686L58.9015 82.6955C58.9015 82.6954 58.9015 82.6954 58.9014 82.6953C58.4846 80.7928 59.1165 78.8105 60.5575 77.5002C60.5575 77.5002 60.5576 77.5001 60.5576 77.5001L78.7335 60.9813C80.1793 59.6682 82.2122 59.2257 84.0744 59.8193L107.517 67.2921C109.379 67.8857 110.783 69.4275 111.2 71.3303L111.2 71.3304L116.463 95.321C116.879 97.2236 116.248 99.206 114.806 100.516L96.6306 117.035C95.1847 118.348 93.1519 118.791 91.2897 118.197L67.8473 110.724C65.9852 110.131 64.5812 108.589 64.1643 106.686Z" stroke="#95D4CB"/>
</g>
<g clip-path="url(#clip2_1863_31457)">
<path d="M82.3224 86.8058L86.6933 73.0934L95.0931 75.7709C97.9302 76.6753 99.2849 78.9019 98.4969 81.3741C97.6016 84.183 94.4809 85.5407 88.9673 85.578C85.2218 85.5591 83.4035 85.9703 82.4944 86.858L82.3227 86.8051L82.3224 86.8058ZM77.9343 100.572L79.761 94.8416C80.567 92.3129 83.512 90.5283 86.8252 90.5313C89.7802 90.4825 92.2785 90.288 94.4565 89.9318C96.4875 92.1899 97.2139 95.2044 96.3718 97.8461C94.9391 102.341 89.5684 104.281 83.7228 102.417L77.9343 100.572ZM71.2859 103.775L82.637 107.394C91.265 110.144 99.4351 106.868 101.692 99.7883C102.928 95.9106 102.052 91.7954 99.2491 88.4248C101.639 87.2052 103.153 85.3976 103.96 82.8689C105.625 77.6444 102.933 72.9477 97.2015 71.1208L83.125 66.6338L71.2859 103.775Z" fill="#0B996E"/>
</g>
</g>
<defs>
<filter id="filter0_dd_1863_31457" x="-5.85205" y="2.24609" width="89.6064" height="88.2139" filterUnits="userSpaceOnUse" color-interpolation-filters="sRGB">
<feFlood flood-opacity="0" result="BackgroundImageFix"/>
<feColorMatrix in="SourceAlpha" type="matrix" values="0 0 0 0 0 0 0 0 0 0 0 0 0 0 0 0 0 0 127 0" result="hardAlpha"/>
<feOffset dy="10"/>
<feGaussianBlur stdDeviation="7"/>
<feComposite in2="hardAlpha" operator="out"/>
<feColorMatrix type="matrix" values="0 0 0 0 0.305882 0 0 0 0 0.298039 0 0 0 0 0.784314 0 0 0 0.01 0"/>
<feBlend mode="normal" in2="BackgroundImageFix" result="effect1_dropShadow_1863_31457"/>
<feColorMatrix in="SourceAlpha" type="matrix" values="0 0 0 0 0 0 0 0 0 0 0 0 0 0 0 0 0 0 127 0" result="hardAlpha"/>
<feOffset dy="9"/>
<feGaussianBlur stdDeviation="6"/>
<feComposite in2="hardAlpha" operator="out"/>
<feColorMatrix type="matrix" values="0 0 0 0 0.152941 0 0 0 0 0.129412 0 0 0 0 0.376471 0 0 0 0.05 0"/>
<feBlend mode="normal" in2="effect1_dropShadow_1863_31457" result="effect2_dropShadow_1863_31457"/>
<feBlend mode="normal" in="SourceGraphic" in2="effect2_dropShadow_1863_31457" result="shape"/>
</filter>
<filter id="filter1_dd_1863_31457" x="44.2754" y="55.0605" width="86.8135" height="87.8955" filterUnits="userSpaceOnUse" color-interpolation-filters="sRGB">
<feFlood flood-opacity="0" result="BackgroundImageFix"/>
<feColorMatrix in="SourceAlpha" type="matrix" values="0 0 0 0 0 0 0 0 0 0 0 0 0 0 0 0 0 0 127 0" result="hardAlpha"/>
<feOffset dy="10"/>
<feGaussianBlur stdDeviation="7"/>
<feComposite in2="hardAlpha" operator="out"/>
<feColorMatrix type="matrix" values="0 0 0 0 0.305882 0 0 0 0 0.298039 0 0 0 0 0.784314 0 0 0 0.01 0"/>
<feBlend mode="normal" in2="BackgroundImageFix" result="effect1_dropShadow_1863_31457"/>
<feColorMatrix in="SourceAlpha" type="matrix" values="0 0 0 0 0 0 0 0 0 0 0 0 0 0 0 0 0 0 127 0" result="hardAlpha"/>
<feOffset dy="9"/>
<feGaussianBlur stdDeviation="6"/>
<feComposite in2="hardAlpha" operator="out"/>
<feColorMatrix type="matrix" values="0 0 0 0 0.152941 0 0 0 0 0.129412 0 0 0 0 0.376471 0 0 0 0.05 0"/>
<feBlend mode="normal" in2="effect1_dropShadow_1863_31457" result="effect2_dropShadow_1863_31457"/>
<feBlend mode="normal" in="SourceGraphic" in2="effect2_dropShadow_1863_31457" result="shape"/>
</filter>
<clipPath id="clip0_1863_31457">
<rect width="128" height="128" fill="white"/>
</clipPath>
<clipPath id="clip1_1863_31457">
<rect width="41.5173" height="41.5173" fill="white" transform="translate(14.0552 23.5479) rotate(-17.0474)"/>
</clipPath>
<clipPath id="clip2_1863_31457">
<rect width="27.7931" height="39" fill="white" transform="translate(83.125 66.6338) rotate(17.68)"/>
</clipPath>
</defs>
</svg>
